# xmcd
#
# Track frame offsets:
#	182
#	17192
#	31570
#	43947
#	67380
#	86825
#	107877
#	133562
#	150495
#
# Disc length: 2256 seconds
#
# Revision: 2
# Processed by: cddbd v1.5.2PL0 Copyright (c) Steve Scherf et al.
# Submitted via: audiograbber 1.83.01
#
DISCID=7608ce09
DTITLE=Cooke, Sam - One night stand - Live at the Harlem Square Club, 1963
DYEAR=1963
DGENRE=Soul
TTITLE0=Feel it
TTITLE1=Chain gang
TTITLE2=Cupid
TTITLE3=Medley =It's all right - For sentimental reasons
TTITLE4=Twistin' the night away
TTITLE5=Somebody have mercy
TTITLE6=Bring it on home to me
TTITLE7=Nothing can change this love
TTITLE8=Having a party
EXTD=
EXTT0=
EXTT1=
EXTT2=
EXTT3=
EXTT4=
EXTT5=
EXTT6=
EXTT7=
EXTT8=
PLAYORDER=
